<svg width="36" height="36" viewBox="0 0 36 36" fill="none" xmlns="http://www.w3.org/2000/svg">
<g clip-path="url(#clip0_2_631)">
<path d="M18 36C27.9411 36 36 27.9411 36 18C36 8.05888 27.9411 0 18 0C8.05888 0 0 8.05888 0 18C0 27.9411 8.05888 36 18 36Z" fill="#007AB9"/>
<path d="M28.7548 19.4484V26.8694H24.4523V19.9458C24.4523 18.2073 23.8311 17.0201 22.2733 17.0201C21.0844 17.0201 20.3782 17.8194 20.0663 18.5933C19.9531 18.8699 19.9239 19.254 19.9239 19.6419V26.8691H15.621C15.621 26.8691 15.6788 15.1427 15.621 13.9289H19.9242V15.7626C19.9155 15.7771 19.9033 15.7912 19.8956 15.805H19.9242V15.7626C20.496 14.8828 21.5157 13.625 23.8019 13.625C26.6326 13.625 28.7548 15.4745 28.7548 19.4484ZM11.1199 7.69122C9.6481 7.69122 8.68518 8.65735 8.68518 9.9267C8.68518 11.1691 9.62019 12.1631 11.0634 12.1631H11.0914C12.5921 12.1631 13.5251 11.1691 13.5251 9.9267C13.4966 8.65735 12.5921 7.69122 11.1199 7.69122ZM8.94091 26.8694H13.2421V13.9289H8.94091V26.8694Z" fill="#F1F2F2"/>
</g>
<defs>
<clipPath id="clip0_2_631">
<rect width="36" height="36" fill="white"/>
</clipPath>
</defs>
</svg>
